# This file uses centimeters as units for non-parametric coordinates.

v 0.132036 0.222994 0.000000
v 0.111497 0.222994 0.000000
v 0.075370 0.079772 0.000000
v 0.075130 0.077795 0.000000
v 0.074958 0.076081 0.000000
v 0.074855 0.074631 0.000000
v 0.074820 0.073445 0.000000
v 0.074683 0.075800 0.000000
v 0.074545 0.077640 0.000000
v 0.074408 0.078964 0.000000
v 0.074270 0.079772 0.000000
v 0.038144 0.222994 0.000000
v 0.017605 0.222994 0.000000
v 0.017605 0.000000 0.000000
v 0.038144 0.000000 0.000000
v 0.038144 0.141939 0.000000
v 0.038018 0.144105 0.000000
v 0.037639 0.147761 0.000000
v 0.037009 0.152907 0.000000
v 0.036126 0.159543 0.000000
v 0.072803 0.023473 0.000000
v 0.076838 0.023473 0.000000
v 0.113514 0.159543 0.000000
v 0.112632 0.152959 0.000000
v 0.112001 0.147830 0.000000
v 0.111623 0.144156 0.000000
v 0.111497 0.141939 0.000000
v 0.111497 0.000000 0.000000
v 0.132036 0.000000 0.000000
v 0.246467 0.121400 0.000000
v 0.245152 0.129629 0.000000
v 0.241940 0.135612 0.000000
v 0.236831 0.139348 0.000000
v 0.229825 0.140838 0.000000
v 0.180953 0.140838 0.000000
v 0.175369 0.139325 0.000000
v 0.171223 0.135887 0.000000
v 0.168515 0.130523 0.000000
v 0.167245 0.123233 0.000000
v 0.167245 0.102695 0.000000
v 0.187784 0.102695 0.000000
v 0.187784 0.123233 0.000000
v 0.225928 0.123233 0.000000
v 0.225928 0.082156 0.000000
v 0.179532 0.082156 0.000000
v 0.173423 0.080565 0.000000
v 0.168850 0.077262 0.000000
v 0.165813 0.072244 0.000000
v 0.164311 0.065514 0.000000
v 0.164311 0.016642 0.000000
v 0.165412 0.009361 0.000000
v 0.168712 0.004161 0.000000
v 0.174214 0.001040 0.000000
v 0.181916 0.000000 0.000000
v 0.185882 0.000135 0.000000
v 0.190718 0.000539 0.000000
v 0.196426 0.001212 0.000000
v 0.203005 0.002155 0.000000
v 0.208667 0.003040 0.000000
v 0.214329 0.003954 0.000000
v 0.219991 0.004897 0.000000
v 0.225653 0.005868 0.000000
v 0.225653 0.000000 0.000000
v 0.246467 0.000000 0.000000
v 0.184850 0.017605 0.000000
v 0.184850 0.064551 0.000000
v 0.225928 0.064551 0.000000
v 0.225928 0.023473 0.000000
v 0.296622 0.196587 0.000000
v 0.275487 0.196587 0.000000
v 0.275487 0.170180 0.000000
v 0.296622 0.170180 0.000000
v 0.296347 0.140838 0.000000
v 0.275808 0.140838 0.000000
v 0.275808 0.000000 0.000000
v 0.296347 0.000000 0.000000
v 0.407844 0.124196 0.000000
v 0.406744 0.131477 0.000000
v 0.403443 0.136678 0.000000
v 0.397941 0.139798 0.000000
v 0.390239 0.140838 0.000000
v 0.385678 0.140681 0.000000
v 0.380658 0.140208 0.000000
v 0.375179 0.139420 0.000000
v 0.369242 0.138317 0.000000
v 0.363265 0.137162 0.000000
v 0.357437 0.136036 0.000000
v 0.351757 0.134938 0.000000
v 0.346227 0.133870 0.000000
v 0.346227 0.140838 0.000000
v 0.325688 0.140838 0.000000
v 0.325688 0.000000 0.000000
v 0.346227 0.000000 0.000000
v 0.346227 0.116265 0.000000
v 0.387305 0.123233 0.000000
v 0.387305 0.000000 0.000000
v 0.407844 0.000000 0.000000
v 0.613233 0.222994 0.000000
v 0.592694 0.222994 0.000000
v 0.556568 0.079772 0.000000
v 0.556327 0.077795 0.000000
v 0.556155 0.076081 0.000000
v 0.556052 0.074631 0.000000
v 0.556018 0.073445 0.000000
v 0.555880 0.075800 0.000000
v 0.555743 0.077640 0.000000
v 0.555605 0.078964 0.000000
v 0.555467 0.079772 0.000000
v 0.519341 0.222994 0.000000
v 0.498802 0.222994 0.000000
v 0.498802 0.000000 0.000000
v 0.519341 0.000000 0.000000
v 0.519341 0.141939 0.000000
v 0.519215 0.144105 0.000000
v 0.518837 0.147761 0.000000
v 0.518206 0.152907 0.000000
v 0.517324 0.159543 0.000000
v 0.554000 0.023473 0.000000
v 0.558035 0.023473 0.000000
v 0.594711 0.159543 0.000000
v 0.593829 0.152959 0.000000
v 0.593199 0.147830 0.000000
v 0.592820 0.144156 0.000000
v 0.592694 0.141939 0.000000
v 0.592694 0.000000 0.000000
v 0.613233 0.000000 0.000000
v 0.727664 0.044012 0.000000
v 0.707125 0.044012 0.000000
v 0.707125 0.017605 0.000000
v 0.666047 0.017605 0.000000
v 0.666047 0.067485 0.000000
v 0.720971 0.067485 0.000000
v 0.727664 0.074224 0.000000
v 0.727664 0.124196 0.000000
v 0.726212 0.131477 0.000000
v 0.722954 0.136678 0.000000
v 0.717891 0.139798 0.000000
v 0.711022 0.140838 0.000000
v 0.662151 0.140838 0.000000
v 0.655282 0.139798 0.000000
v 0.650219 0.136678 0.000000
v 0.646961 0.131477 0.000000
v 0.645509 0.124196 0.000000
v 0.645509 0.016642 0.000000
v 0.646961 0.009361 0.000000
v 0.650219 0.004161 0.000000
v 0.655282 0.001040 0.000000
v 0.662151 0.000000 0.000000
v 0.711022 0.000000 0.000000
v 0.717753 0.001350 0.000000
v 0.722770 0.004665 0.000000
v 0.726074 0.009946 0.000000
v 0.727664 0.017192 0.000000
v 0.666047 0.085090 0.000000
v 0.666047 0.123233 0.000000
v 0.707125 0.123233 0.000000
v 0.707125 0.085090 0.000000
v 0.839161 0.124196 0.000000
v 0.838061 0.131477 0.000000
v 0.834760 0.136678 0.000000
v 0.829258 0.139798 0.000000
v 0.821556 0.140838 0.000000
v 0.816995 0.140681 0.000000
v 0.811975 0.140208 0.000000
v 0.806496 0.139420 0.000000
v 0.800559 0.138317 0.000000
v 0.794582 0.137162 0.000000
v 0.788754 0.136036 0.000000
v 0.783075 0.134938 0.000000
v 0.777544 0.133870 0.000000
v 0.777544 0.140838 0.000000
v 0.757006 0.140838 0.000000
v 0.757006 0.000000 0.000000
v 0.777544 0.000000 0.000000
v 0.777544 0.116265 0.000000
v 0.818622 0.123233 0.000000
v 0.818622 0.000000 0.000000
v 0.839161 0.000000 0.000000
v 0.950658 0.140838 0.000000
v 0.930119 0.140838 0.000000
v 0.930119 0.024573 0.000000
v 0.889041 0.017605 0.000000
v 0.889041 0.140838 0.000000
v 0.868502 0.140838 0.000000
v 0.868502 0.016642 0.000000
v 0.869818 0.009774 0.000000
v 0.873030 0.004711 0.000000
v 0.878139 0.001453 0.000000
v 0.885144 0.000000 0.000000
v 0.889884 0.000158 0.000000
v 0.895208 0.000630 0.000000
v 0.901116 0.001418 0.000000
v 0.907609 0.002522 0.000000
v 0.913211 0.003590 0.000000
v 0.918830 0.004688 0.000000
v 0.924466 0.005814 0.000000
v 0.930119 0.006969 0.000000
v 0.930119 0.000000 0.000000
v 0.950658 0.000000 0.000000
vt 0.295265 0.573379
vt 0.242626 0.573379
vt 0.150038 0.206318
vt 0.149422 0.201251
vt 0.148981 0.196859
vt 0.148717 0.193144
vt 0.148628 0.190103
vt 0.148276 0.196140
vt 0.147923 0.200854
vt 0.147571 0.204247
vt 0.147218 0.206318
vt 0.054631 0.573379
vt 0.001992 0.573379
vt 0.001992 0.001873
vt 0.054631 0.001873
vt 0.054631 0.365644
vt 0.054308 0.371196
vt 0.053338 0.380566
vt 0.051723 0.393755
vt 0.049461 0.410763
vt 0.143459 0.062031
vt 0.153798 0.062031
vt 0.247796 0.410763
vt 0.245534 0.393887
vt 0.243919 0.380742
vt 0.242949 0.371328
vt 0.242626 0.365644
vt 0.242626 0.001873
vt 0.295265 0.001873
vt 0.813019 0.313005
vt 0.809648 0.334096
vt 0.801416 0.349429
vt 0.788323 0.359005
vt 0.770368 0.362824
vt 0.645116 0.362824
vt 0.630803 0.358947
vt 0.620177 0.350134
vt 0.613237 0.336387
vt 0.609984 0.317705
vt 0.609984 0.265067
vt 0.662623 0.265067
vt 0.662623 0.317705
vt 0.760380 0.317705
vt 0.760380 0.212428
vt 0.641473 0.212428
vt 0.625817 0.208352
vt 0.614097 0.199885
vt 0.606312 0.187026
vt 0.602464 0.169776
vt 0.602464 0.044524
vt 0.605284 0.025864
vt 0.613744 0.012536
vt 0.627844 0.004539
vt 0.647583 0.001873
vt 0.657747 0.002218
vt 0.670143 0.003253
vt 0.684771 0.004979
vt 0.701632 0.007395
vt 0.716143 0.009664
vt 0.730654 0.012007
vt 0.745165 0.014423
vt 0.759676 0.016913
vt 0.759676 0.001873
vt 0.813019 0.001873
vt 0.655103 0.046992
vt 0.655103 0.167309
vt 0.760380 0.167309
vt 0.760380 0.062031
vt 0.131247 0.645049
vt 0.077081 0.645049
vt 0.077081 0.577370
vt 0.131247 0.577370
vt 0.873386 0.362824
vt 0.820747 0.362824
vt 0.820747 0.001873
vt 0.873386 0.001873
vt 0.998008 0.685115
vt 0.995188 0.703775
vt 0.986728 0.717104
vt 0.972629 0.725101
vt 0.952889 0.727767
vt 0.941198 0.727363
vt 0.928332 0.726151
vt 0.914291 0.724132
vt 0.899075 0.721304
vt 0.883757 0.718345
vt 0.868820 0.715459
vt 0.854265 0.712646
vt 0.840092 0.709907
vt 0.840092 0.727767
vt 0.787453 0.727767
vt 0.787453 0.366816
vt 0.840092 0.366816
vt 0.840092 0.664788
vt 0.945369 0.682648
vt 0.945369 0.366816
vt 0.998008 0.366816
vt 0.595599 0.573379
vt 0.542960 0.573379
vt 0.450372 0.206318
vt 0.449755 0.201251
vt 0.449315 0.196859
vt 0.449050 0.193144
vt 0.448962 0.190103
vt 0.448610 0.196140
vt 0.448257 0.200854
vt 0.447905 0.204247
vt 0.447552 0.206318
vt 0.354964 0.573379
vt 0.302326 0.573379
vt 0.302326 0.001873
vt 0.354964 0.001873
vt 0.354964 0.365644
vt 0.354641 0.371196
vt 0.353672 0.380566
vt 0.352056 0.393755
vt 0.349795 0.410763
vt 0.443792 0.062031
vt 0.454132 0.062031
vt 0.548130 0.410763
vt 0.545868 0.393887
vt 0.544252 0.380742
vt 0.543283 0.371328
vt 0.542960 0.365644
vt 0.542960 0.001873
vt 0.595599 0.001873
vt 0.781318 0.690168
vt 0.728679 0.690168
vt 0.728679 0.622489
vt 0.623402 0.622489
vt 0.623402 0.750326
vt 0.764163 0.750326
vt 0.781318 0.767598
vt 0.781318 0.895670
vt 0.777595 0.914330
vt 0.769245 0.927659
vt 0.756269 0.935656
vt 0.738666 0.938322
vt 0.613414 0.938322
vt 0.595812 0.935656
vt 0.582836 0.927659
vt 0.574486 0.914330
vt 0.570763 0.895670
vt 0.570763 0.620022
vt 0.574486 0.601362
vt 0.582836 0.588033
vt 0.595812 0.580036
vt 0.613414 0.577370
vt 0.738666 0.577370
vt 0.755916 0.580829
vt 0.768775 0.589326
vt 0.777242 0.602860
vt 0.781318 0.621432
vt 0.623402 0.795445
vt 0.623402 0.893203
vt 0.728679 0.893203
vt 0.728679 0.795445
vt 0.564628 0.895670
vt 0.561808 0.914330
vt 0.553348 0.927659
vt 0.539248 0.935656
vt 0.519509 0.938322
vt 0.507818 0.937918
vt 0.494952 0.936706
vt 0.480911 0.934687
vt 0.465695 0.931859
vt 0.450376 0.928900
vt 0.435439 0.926014
vt 0.420885 0.923201
vt 0.406711 0.920462
vt 0.406711 0.938322
vt 0.354073 0.938322
vt 0.354073 0.577370
vt 0.406711 0.577370
vt 0.406711 0.875343
vt 0.511989 0.893203
vt 0.511989 0.577370
vt 0.564628 0.577370
vt 0.347937 0.938322
vt 0.295299 0.938322
vt 0.295299 0.640349
vt 0.190021 0.622489
vt 0.190021 0.938322
vt 0.137383 0.938322
vt 0.137383 0.620022
vt 0.140753 0.602419
vt 0.148985 0.589443
vt 0.162079 0.581094
vt 0.180034 0.577370
vt 0.192180 0.577774
vt 0.205825 0.578986
vt 0.220967 0.581006
vt 0.237608 0.583833
vt 0.251964 0.586572
vt 0.266365 0.589384
vt 0.280810 0.592271
vt 0.295299 0.595230
vt 0.295299 0.577370
vt 0.347937 0.577370
vn 0.000000 0.000000 1.000000
vn 0.000000 0.000000 1.000000
vn 0.000000 0.000000 1.000000
vn 0.000000 0.000000 1.000000
vn 0.000000 0.000000 1.000000
vn 0.000000 0.000000 1.000000
vn 0.000000 0.000000 1.000000
vn 0.000000 0.000000 1.000000
vn 0.000000 0.000000 1.000000
vn 0.000000 0.000000 1.000000
vn 0.000000 0.000000 1.000000
vn 0.000000 0.000000 1.000000
vn 0.000000 0.000000 1.000000
vn 0.000000 0.000000 1.000000
vn 0.000000 0.000000 1.000000
vn 0.000000 0.000000 1.000000
vn 0.000000 0.000000 1.000000
vn 0.000000 0.000000 1.000000
vn 0.000000 0.000000 1.000000
vn 0.000000 0.000000 1.000000
vn 0.000000 0.000000 1.000000
vn 0.000000 0.000000 1.000000
vn 0.000000 0.000000 1.000000
vn 0.000000 0.000000 1.000000
vn 0.000000 0.000000 1.000000
vn 0.000000 0.000000 1.000000
vn 0.000000 0.000000 1.000000
vn 0.000000 0.000000 1.000000
vn 0.000000 0.000000 1.000000
vn 0.000000 0.000000 1.000000
vn 0.000000 0.000000 1.000000
vn 0.000000 0.000000 1.000000
vn 0.000000 0.000000 1.000000
vn 0.000000 0.000000 1.000000
vn -0.000000 0.000000 1.000000
vn -0.000000 0.000000 1.000000
vn 0.000000 0.000000 1.000000
vn -0.000000 0.000000 1.000000
vn 0.000000 0.000000 1.000000
vn 0.000000 0.000000 1.000000
vn -0.000000 0.000000 1.000000
vn -0.000000 0.000000 1.000000
vn -0.000000 0.000000 1.000000
vn -0.000000 0.000000 1.000000
vn 0.000000 0.000000 1.000000
vn 0.000000 0.000000 1.000000
vn 0.000000 0.000000 1.000000
vn 0.000000 0.000000 1.000000
vn 0.000000 0.000000 1.000000
vn -0.000000 0.000000 1.000000
vn 0.000000 0.000000 1.000000
vn -0.000000 0.000000 1.000000
vn 0.000000 0.000000 1.000000
vn -0.000000 0.000000 1.000000
vn 0.000000 0.000000 1.000000
vn 0.000000 0.000000 1.000000
vn -0.000000 0.000000 1.000000
vn 0.000000 0.000000 1.000000
vn 0.000000 0.000000 1.000000
vn -0.000000 0.000000 1.000000
vn -0.000000 0.000000 1.000000
vn 0.000000 0.000000 1.000000
vn 0.000000 0.000000 1.000000
vn 0.000000 0.000000 1.000000
vn 0.000000 0.000000 1.000000
vn 0.000000 0.000000 1.000000
vn 0.000000 0.000000 1.000000
vn 0.000000 0.000000 1.000000
vn 0.000000 0.000000 1.000000
vn 0.000000 0.000000 1.000000
vn 0.000000 0.000000 1.000000
vn 0.000000 0.000000 1.000000
vn 0.000000 0.000000 1.000000
vn 0.000000 0.000000 1.000000
vn 0.000000 0.000000 1.000000
vn 0.000000 0.000000 1.000000
vn 0.000000 0.000000 1.000000
vn 0.000000 0.000000 1.000000
vn 0.000000 0.000000 1.000000
vn 0.000000 0.000000 1.000000
vn 0.000000 0.000000 1.000000
vn 0.000000 0.000000 1.000000
vn -0.000000 0.000000 1.000000
vn 0.000000 0.000000 1.000000
vn 0.000000 0.000000 1.000000
vn -0.000000 0.000000 1.000000
vn 0.000000 0.000000 1.000000
vn 0.000000 0.000000 1.000000
vn -0.000000 0.000000 1.000000
vn -0.000000 0.000000 1.000000
vn 0.000000 0.000000 1.000000
vn 0.000000 0.000000 1.000000
vn -0.000000 0.000000 1.000000
vn 0.000000 0.000000 1.000000
vn 0.000000 0.000000 1.000000
vn 0.000000 0.000000 1.000000
vn -0.000000 0.000000 1.000000
vn 0.000000 0.000000 1.000000
vn -0.000000 0.000000 1.000000
vn 0.000000 0.000000 1.000000
vn 0.000000 0.000000 1.000000
vn 0.000000 0.000000 1.000000
vn 0.000000 0.000000 1.000000
vn 0.000000 0.000000 1.000000
vn 0.000000 0.000000 1.000000
vn 0.000000 0.000000 1.000000
vn 0.000000 0.000000 1.000000
vn 0.000000 0.000000 1.000000
vn 0.000000 0.000000 1.000000
vn 0.000000 0.000000 1.000000
vn 0.000000 0.000000 1.000000
vn 0.000000 0.000000 1.000000
vn 0.000000 0.000000 1.000000
vn 0.000000 0.000000 1.000000
vn -0.000000 0.000000 1.000000
vn 0.000000 0.000000 1.000000
vn 0.000000 0.000000 1.000000
vn 0.000000 0.000000 1.000000
vn -0.000000 0.000000 1.000000
vn 0.000000 0.000000 1.000000
vn 0.000000 0.000000 1.000000
vn 0.000000 0.000000 1.000000
vn -0.000000 0.000000 1.000000
vn 0.000000 0.000000 1.000000
vn 0.000000 0.000000 1.000000
vn 0.000000 0.000000 1.000000
vn 0.000000 0.000000 1.000000
vn 0.000000 0.000000 1.000000
vn 0.000000 0.000000 1.000000
vn -0.000000 0.000000 1.000000
vn 0.000000 0.000000 1.000000
vn 0.000000 0.000000 1.000000
vn 0.000000 0.000000 1.000000
vn -0.000000 0.000000 1.000000
vn -0.000000 0.000000 1.000000
vn 0.000000 0.000000 1.000000
vn 0.000000 0.000000 1.000000
vn 0.000000 0.000000 1.000000
vn 0.000000 0.000000 1.000000
vn 0.000000 0.000000 1.000000
vn 0.000000 0.000000 1.000000
vn 0.000000 0.000000 1.000000
vn 0.000000 0.000000 1.000000
vn -0.000000 0.000000 1.000000
vn 0.000000 0.000000 1.000000
vn -0.000000 0.000000 1.000000
vn -0.000000 0.000000 1.000000
vn 0.000000 0.000000 1.000000
vn -0.000000 0.000000 1.000000
vn 0.000000 0.000000 1.000000
vn 0.000000 0.000000 1.000000
vn 0.000000 0.000000 1.000000
vn 0.000000 0.000000 1.000000
vn -0.000000 0.000000 1.000000
vn -0.000000 0.000000 1.000000
vn 0.000000 0.000000 1.000000
vn 0.000000 0.000000 1.000000
vn 0.000000 0.000000 1.000000
vn 0.000000 0.000000 1.000000
vn 0.000000 0.000000 1.000000
vn 0.000000 0.000000 1.000000
vn 0.000000 0.000000 1.000000
vn 0.000000 0.000000 1.000000
vn 0.000000 0.000000 1.000000
vn 0.000000 0.000000 1.000000
vn -0.000000 0.000000 1.000000
vn 0.000000 0.000000 1.000000
vn 0.000000 0.000000 1.000000
vn -0.000000 0.000000 1.000000
vn -0.000000 0.000000 1.000000
vn -0.000000 0.000000 1.000000
vn -0.000000 0.000000 1.000000
vn 0.000000 0.000000 1.000000
vn 0.000000 0.000000 1.000000
vn 0.000000 0.000000 1.000000
vn 0.000000 0.000000 1.000000
vn 0.000000 0.000000 1.000000
vn 0.000000 0.000000 1.000000
vn 0.000000 0.000000 1.000000
vn 0.000000 0.000000 1.000000
vn 0.000000 0.000000 1.000000
vn -0.000000 0.000000 1.000000
vn 0.000000 0.000000 1.000000
vn 0.000000 0.000000 1.000000
vn -0.000000 0.000000 1.000000
vn 0.000000 0.000000 1.000000
vn 0.000000 0.000000 1.000000
vn 0.000000 0.000000 1.000000
vn 0.000000 0.000000 1.000000
vn 0.000000 0.000000 1.000000
vn 0.000000 0.000000 1.000000
vn -0.000000 0.000000 1.000000
vn 0.000000 0.000000 1.000000
vn 0.000000 0.000000 1.000000
vn 0.000000 0.000000 1.000000
vn -0.000000 0.000000 1.000000
vn 0.000000 0.000000 1.000000
vn 0.000000 0.000000 1.000000
vn 0.000000 0.000000 1.000000
f 1/1/1 2/2/2 29/29/3
f 13/13/4 14/14/5 12/12/6
f 15/15/7 16/16/8 14/14/5
f 28/28/9 29/29/3 27/27/10
f 21/21/11 22/22/12 20/20/13
f 3/3/14 4/4/15 2/2/2
f 4/4/15 5/5/16 2/2/2
f 5/5/16 6/6/17 2/2/2
f 6/6/17 7/7/18 2/2/2
f 8/8/19 9/9/20 7/7/18
f 9/9/20 10/10/21 7/7/18
f 10/10/21 11/11/22 7/7/18
f 11/11/22 12/12/6 7/7/18
f 16/16/8 17/17/23 14/14/5
f 17/17/23 18/18/24 14/14/5
f 18/18/24 19/19/25 14/14/5
f 19/19/25 20/20/13 14/14/5
f 14/14/5 20/20/13 12/12/6
f 12/12/6 20/20/13 7/7/18
f 20/20/13 22/22/12 7/7/18
f 22/22/12 23/23/26 7/7/18
f 7/7/18 23/23/26 2/2/2
f 2/2/2 23/23/26 29/29/3
f 23/23/26 24/24/27 29/29/3
f 24/24/27 25/25/28 29/29/3
f 25/25/28 26/26/29 29/29/3
f 26/26/29 27/27/10 29/29/3
f 40/40/30 41/41/31 39/39/32
f 41/41/31 42/42/33 39/39/32
f 39/39/32 42/42/33 38/38/34
f 38/38/34 42/42/33 37/37/35
f 37/37/35 42/42/33 36/36/36
f 36/36/36 42/42/33 35/35/37
f 35/35/37 42/42/33 34/34/38
f 42/42/33 43/43/39 34/34/38
f 63/63/40 64/64/41 62/62/42
f 64/64/41 30/30/43 62/62/42
f 34/34/38 43/43/39 33/33/44
f 33/33/44 43/43/39 32/32/45
f 32/32/45 43/43/39 31/31/46
f 31/31/46 43/43/39 30/30/43
f 43/43/39 44/44/47 30/30/43
f 30/30/43 68/68/48 62/62/42
f 68/68/48 30/30/43 67/67/49
f 30/30/43 44/44/47 67/67/49
f 68/68/48 65/65/50 62/62/42
f 62/62/42 65/65/50 61/61/51
f 61/61/51 65/65/50 60/60/52
f 60/60/52 65/65/50 59/59/53
f 59/59/53 65/65/50 58/58/54
f 58/58/54 65/65/50 57/57/55
f 57/57/55 65/65/50 56/56/56
f 56/56/56 65/65/50 55/55/57
f 67/67/49 44/44/47 66/66/58
f 44/44/47 45/45/59 66/66/58
f 55/55/57 65/65/50 54/54/60
f 54/54/60 65/65/50 53/53/61
f 45/45/59 46/46/62 66/66/58
f 46/46/62 47/47/63 66/66/58
f 47/47/63 48/48/64 66/66/58
f 48/48/64 49/49/65 66/66/58
f 49/49/65 50/50/66 66/66/58
f 66/66/58 50/50/66 65/65/50
f 50/50/66 51/51/67 65/65/50
f 51/51/67 52/52/68 65/65/50
f 65/65/50 52/52/68 53/53/61
f 69/69/69 70/70/70 72/72/71
f 72/72/71 70/70/70 71/71/72
f 73/73/73 74/74/74 76/76/75
f 76/76/75 74/74/74 75/75/76
f 90/90/77 91/91/78 89/89/79
f 91/91/78 92/92/80 89/89/79
f 93/93/81 94/94/82 92/92/80
f 92/92/80 94/94/82 89/89/79
f 94/94/82 95/95/83 89/89/79
f 89/89/79 95/95/83 88/88/84
f 88/88/84 95/95/83 87/87/85
f 87/87/85 95/95/83 86/86/86
f 86/86/86 95/95/83 85/85/87
f 85/85/87 95/95/83 84/84/88
f 84/84/88 95/95/83 83/83/89
f 83/83/89 95/95/83 82/82/90
f 82/82/90 95/95/83 81/81/91
f 96/96/92 97/97/93 95/95/83
f 81/81/91 95/95/83 80/80/94
f 80/80/94 95/95/83 79/79/95
f 79/79/95 95/95/83 78/78/96
f 78/78/96 95/95/83 77/77/97
f 77/77/97 95/95/83 97/97/93
f 98/98/98 99/99/99 126/126/100
f 110/110/101 111/111/102 109/109/103
f 112/112/104 113/113/105 111/111/102
f 125/125/106 126/126/100 124/124/107
f 118/118/108 119/119/109 117/117/110
f 100/100/111 101/101/112 99/99/99
f 101/101/112 102/102/113 99/99/99
f 102/102/113 103/103/114 99/99/99
f 103/103/114 104/104/115 99/99/99
f 105/105/116 106/106/117 104/104/115
f 106/106/117 107/107/118 104/104/115
f 107/107/118 108/108/119 104/104/115
f 108/108/119 109/109/103 104/104/115
f 113/113/105 114/114/120 111/111/102
f 114/114/120 115/115/121 111/111/102
f 115/115/121 116/116/122 111/111/102
f 116/116/122 117/117/110 111/111/102
f 111/111/102 117/117/110 109/109/103
f 109/109/103 117/117/110 104/104/115
f 117/117/110 119/119/109 104/104/115
f 119/119/109 120/120/123 104/104/115
f 104/104/115 120/120/123 99/99/99
f 99/99/99 120/120/123 126/126/100
f 120/120/123 121/121/124 126/126/100
f 121/121/124 122/122/125 126/126/100
f 122/122/125 123/123/126 126/126/100
f 123/123/126 124/124/107 126/126/100
f 127/127/127 128/128/128 153/153/129
f 128/128/128 129/129/130 153/153/129
f 153/153/129 129/129/130 152/152/131
f 152/152/131 129/129/130 151/151/132
f 151/151/132 129/129/130 150/150/133
f 150/150/133 129/129/130 149/149/134
f 149/149/134 129/129/130 148/148/135
f 129/129/130 130/130/136 148/148/135
f 148/148/135 130/130/136 147/147/137
f 147/147/137 130/130/136 146/146/138
f 146/146/138 130/130/136 145/145/139
f 145/145/139 130/130/136 144/144/140
f 144/144/140 130/130/136 143/143/141
f 130/130/136 131/131/142 143/143/141
f 131/131/142 154/154/143 143/143/141
f 154/154/143 155/155/144 143/143/141
f 143/143/141 155/155/144 142/142/145
f 142/142/145 155/155/144 141/141/146
f 141/141/146 155/155/144 140/140/147
f 140/140/147 155/155/144 139/139/148
f 139/139/148 155/155/144 138/138/149
f 155/155/144 156/156/150 138/138/149
f 154/154/143 131/131/142 157/157/151
f 131/131/142 132/132/152 157/157/151
f 132/132/152 133/133/153 157/157/151
f 133/133/153 134/134/154 157/157/151
f 157/157/151 134/134/154 156/156/150
f 156/156/150 134/134/154 138/138/149
f 134/134/154 135/135/155 138/138/149
f 138/138/149 135/135/155 137/137/156
f 135/135/155 136/136/157 137/137/156
f 171/171/158 172/172/159 170/170/160
f 172/172/159 173/173/161 170/170/160
f 174/174/162 175/175/163 173/173/161
f 173/173/161 175/175/163 170/170/160
f 175/175/163 176/176/164 170/170/160
f 170/170/160 176/176/164 169/169/165
f 169/169/165 176/176/164 168/168/166
f 168/168/166 176/176/164 167/167/167
f 167/167/167 176/176/164 166/166/168
f 166/166/168 176/176/164 165/165/169
f 165/165/169 176/176/164 164/164/170
f 164/164/170 176/176/164 163/163/171
f 163/163/171 176/176/164 162/162/172
f 177/177/173 178/178/174 176/176/164
f 162/162/172 176/176/164 161/161/175
f 161/161/175 176/176/164 160/160/176
f 160/160/176 176/176/164 159/159/177
f 159/159/177 176/176/164 158/158/178
f 158/158/178 176/176/164 178/178/174
f 179/179/179 180/180/180 199/199/181
f 180/180/180 181/181/182 199/199/181
f 183/183/183 184/184/184 182/182/185
f 184/184/184 185/185/186 182/182/185
f 185/185/186 186/186/187 182/182/185
f 186/186/187 187/187/188 182/182/185
f 187/187/188 188/188/189 182/182/185
f 188/188/189 189/189/190 182/182/185
f 189/189/190 190/190/191 182/182/185
f 190/190/191 191/191/192 182/182/185
f 182/182/185 191/191/192 181/181/182
f 191/191/192 192/192/193 181/181/182
f 192/192/193 193/193/194 181/181/182
f 193/193/194 194/194/195 181/181/182
f 194/194/195 195/195/196 181/181/182
f 195/195/196 196/196/197 181/181/182
f 196/196/197 197/197/198 181/181/182
f 181/181/182 197/197/198 199/199/181
f 197/197/198 198/198/199 199/199/181
