# This file uses centimeters as units for non-parametric coordinates.

v 0.075845 0.198766 0.000000
v 0.052062 0.041641 0.000000
v 0.051732 0.037664 0.000000
v 0.051479 0.034194 0.000000
v 0.051303 0.031228 0.000000
v 0.051203 0.028769 0.000000
v 0.050882 0.034400 0.000000
v 0.050652 0.038423 0.000000
v 0.050514 0.040837 0.000000
v 0.050468 0.041641 0.000000
v 0.026153 0.198766 0.000000
v 0.007846 0.198766 0.000000
v 0.041845 0.000000 0.000000
v 0.060153 0.000000 0.000000
v 0.094152 0.198766 0.000000
v 0.198766 0.061134 0.000000
v 0.198413 0.065177 0.000000
v 0.197356 0.069010 0.000000
v 0.195594 0.072634 0.000000
v 0.193126 0.076049 0.000000
v 0.135998 0.142536 0.000000
v 0.135998 0.183074 0.000000
v 0.180458 0.183074 0.000000
v 0.180458 0.138613 0.000000
v 0.198766 0.138613 0.000000
v 0.198766 0.183932 0.000000
v 0.198509 0.187052 0.000000
v 0.197739 0.189873 0.000000
v 0.196456 0.192395 0.000000
v 0.194659 0.194618 0.000000
v 0.192448 0.196433 0.000000
v 0.189924 0.197729 0.000000
v 0.187085 0.198507 0.000000
v 0.183932 0.198766 0.000000
v 0.132524 0.198766 0.000000
v 0.129421 0.198507 0.000000
v 0.126609 0.197729 0.000000
v 0.124088 0.196433 0.000000
v 0.121858 0.194618 0.000000
v 0.120035 0.192395 0.000000
v 0.118732 0.189873 0.000000
v 0.117951 0.187052 0.000000
v 0.117690 0.183932 0.000000
v 0.117690 0.145723 0.000000
v 0.118061 0.141665 0.000000
v 0.119172 0.137785 0.000000
v 0.121023 0.134085 0.000000
v 0.123616 0.130563 0.000000
v 0.180458 0.064076 0.000000
v 0.180458 0.015692 0.000000
v 0.135998 0.015692 0.000000
v 0.135998 0.062768 0.000000
v 0.117690 0.062768 0.000000
v 0.117690 0.014834 0.000000
v 0.117951 0.011714 0.000000
v 0.118732 0.008893 0.000000
v 0.120035 0.006371 0.000000
v 0.121858 0.004148 0.000000
v 0.124088 0.002333 0.000000
v 0.126609 0.001037 0.000000
v 0.129421 0.000259 0.000000
v 0.132524 0.000000 0.000000
v 0.183932 0.000000 0.000000
v 0.187085 0.000259 0.000000
v 0.189924 0.001037 0.000000
v 0.192448 0.002333 0.000000
v 0.194659 0.004148 0.000000
v 0.196456 0.006371 0.000000
v 0.197739 0.008893 0.000000
v 0.198509 0.011714 0.000000
v 0.198766 0.014834 0.000000
v 0.332148 0.198766 0.000000
v 0.313841 0.198766 0.000000
v 0.274611 0.000490 0.000000
v 0.274611 0.000000 0.000000
v 0.292918 0.000000 0.000000
v 0.300682 0.041845 0.000000
v 0.345102 0.041845 0.000000
v 0.353071 0.000000 0.000000
v 0.371378 0.000000 0.000000
v 0.303216 0.057537 0.000000
v 0.322667 0.166605 0.000000
v 0.342487 0.057537 0.000000
v 0.413224 0.198766 0.000000
v 0.394916 0.198766 0.000000
v 0.394916 0.000000 0.000000
v 0.413224 0.000000 0.000000
vt 0.236058 0.685560
vt 0.154191 0.144705
vt 0.153057 0.131017
vt 0.152186 0.119069
vt 0.151580 0.108862
vt 0.151237 0.100396
vt 0.150129 0.119781
vt 0.149338 0.133628
vt 0.148863 0.141936
vt 0.148705 0.144705
vt 0.065010 0.685560
vt 0.001992 0.685560
vt 0.119025 0.001368
vt 0.182042 0.001368
vt 0.299075 0.685560
vt 0.585313 0.211802
vt 0.584100 0.225719
vt 0.580460 0.238915
vt 0.574394 0.251390
vt 0.565901 0.263145
vt 0.369253 0.492006
vt 0.369253 0.631545
vt 0.522296 0.631545
vt 0.522296 0.478502
vt 0.585313 0.478502
vt 0.585313 0.634499
vt 0.584430 0.645237
vt 0.581779 0.654948
vt 0.577361 0.663629
vt 0.571176 0.671282
vt 0.563567 0.677529
vt 0.554877 0.681990
vt 0.545105 0.684667
vt 0.534252 0.685560
vt 0.357296 0.685560
vt 0.346615 0.684667
vt 0.336935 0.681990
vt 0.328258 0.677529
vt 0.320583 0.671282
vt 0.314306 0.663629
vt 0.309822 0.654948
vt 0.307132 0.645237
vt 0.306235 0.634499
vt 0.306235 0.502977
vt 0.307510 0.489008
vt 0.311334 0.475653
vt 0.317708 0.462914
vt 0.326631 0.450791
vt 0.522296 0.221930
vt 0.522296 0.055384
vt 0.369253 0.055384
vt 0.369253 0.217429
vt 0.306235 0.217429
vt 0.306235 0.052430
vt 0.307132 0.041691
vt 0.309822 0.031980
vt 0.314306 0.023299
vt 0.320583 0.015646
vt 0.328258 0.009399
vt 0.336935 0.004938
vt 0.346615 0.002261
vt 0.357296 0.001368
vt 0.534252 0.001368
vt 0.545105 0.002261
vt 0.554877 0.004938
vt 0.563567 0.009399
vt 0.571176 0.015646
vt 0.577361 0.023299
vt 0.581779 0.031980
vt 0.584430 0.041691
vt 0.585313 0.052430
vt 0.791780 0.685560
vt 0.728763 0.685560
vt 0.593725 0.003056
vt 0.593725 0.001368
vt 0.656743 0.001368
vt 0.683469 0.145409
vt 0.836371 0.145409
vt 0.863801 0.001368
vt 0.926818 0.001368
vt 0.692190 0.199424
vt 0.759146 0.574857
vt 0.827368 0.199424
vt 0.998008 0.685560
vt 0.934990 0.685560
vt 0.934990 0.001368
vt 0.998008 0.001368
vn 0.000000 0.000000 1.000000
vn 0.000000 0.000000 1.000000
vn 0.000000 0.000000 1.000000
vn 0.000000 0.000000 1.000000
vn 0.000000 0.000000 1.000000
vn 0.000000 0.000000 1.000000
vn 0.000000 0.000000 1.000000
vn 0.000000 0.000000 1.000000
vn 0.000000 0.000000 1.000000
vn 0.000000 0.000000 1.000000
vn 0.000000 0.000000 1.000000
vn 0.000000 0.000000 1.000000
vn 0.000000 0.000000 1.000000
vn 0.000000 0.000000 1.000000
vn 0.000000 0.000000 1.000000
vn 0.000000 0.000000 1.000000
vn 0.000000 0.000000 1.000000
vn -0.000000 0.000000 1.000000
vn -0.000000 0.000000 1.000000
vn -0.000000 0.000000 1.000000
vn -0.000000 0.000000 1.000000
vn -0.000000 0.000000 1.000000
vn 0.000000 0.000000 1.000000
vn -0.000000 0.000000 1.000000
vn -0.000000 0.000000 1.000000
vn 0.000000 0.000000 1.000000
vn -0.000000 0.000000 1.000000
vn 0.000000 0.000000 1.000000
vn -0.000000 0.000000 1.000000
vn 0.000000 0.000000 1.000000
vn 0.000000 0.000000 1.000000
vn 0.000000 0.000000 1.000000
vn 0.000000 0.000000 1.000000
vn -0.000000 0.000000 1.000000
vn 0.000000 0.000000 1.000000
vn 0.000000 0.000000 1.000000
vn -0.000000 0.000000 1.000000
vn -0.000000 0.000000 1.000000
vn 0.000000 0.000000 1.000000
vn 0.000000 0.000000 1.000000
vn 0.000000 0.000000 1.000000
vn 0.000000 0.000000 1.000000
vn 0.000000 0.000000 1.000000
vn -0.000000 0.000000 1.000000
vn -0.000000 0.000000 1.000000
vn -0.000000 0.000000 1.000000
vn -0.000000 0.000000 1.000000
vn 0.000000 0.000000 1.000000
vn 0.000000 0.000000 1.000000
vn 0.000000 0.000000 1.000000
vn -0.000000 0.000000 1.000000
vn -0.000000 0.000000 1.000000
vn -0.000000 0.000000 1.000000
vn -0.000000 0.000000 1.000000
vn -0.000000 0.000000 1.000000
vn 0.000000 0.000000 1.000000
vn 0.000000 0.000000 1.000000
vn 0.000000 0.000000 1.000000
vn 0.000000 0.000000 1.000000
vn -0.000000 0.000000 1.000000
vn -0.000000 0.000000 1.000000
vn 0.000000 0.000000 1.000000
vn 0.000000 0.000000 1.000000
vn -0.000000 0.000000 1.000000
vn 0.000000 0.000000 1.000000
vn -0.000000 0.000000 1.000000
vn 0.000000 0.000000 1.000000
vn 0.000000 0.000000 1.000000
vn 0.000000 0.000000 1.000000
vn 0.000000 0.000000 1.000000
vn -0.000000 0.000000 1.000000
vn 0.000000 0.000000 1.000000
vn -0.000000 0.000000 1.000000
vn -0.000000 0.000000 1.000000
vn -0.000000 0.000000 1.000000
vn 0.000000 0.000000 1.000000
vn 0.000000 0.000000 1.000000
vn 0.000000 0.000000 1.000000
vn 0.000000 0.000000 1.000000
vn -0.000000 0.000000 1.000000
vn -0.000000 0.000000 1.000000
vn 0.000000 0.000000 1.000000
vn 0.000000 0.000000 1.000000
vn 0.000000 0.000000 1.000000
vn 0.000000 0.000000 1.000000
vn 0.000000 0.000000 1.000000
vn 0.000000 0.000000 1.000000
f 12/12/1 13/13/2 11/11/3
f 11/11/3 13/13/2 10/10/4
f 10/10/4 13/13/2 9/9/5
f 9/9/5 13/13/2 8/8/6
f 8/8/6 13/13/2 7/7/7
f 7/7/7 13/13/2 6/6/8
f 13/13/2 14/14/9 6/6/8
f 14/14/9 15/15/10 6/6/8
f 6/6/8 15/15/10 5/5/11
f 5/5/11 15/15/10 4/4/12
f 4/4/12 15/15/10 3/3/13
f 3/3/13 15/15/10 2/2/14
f 1/1/15 2/2/14 15/15/10
f 24/24/16 25/25/17 23/23/18
f 25/25/17 26/26/19 23/23/18
f 26/26/19 27/27/20 23/23/18
f 27/27/20 28/28/21 23/23/18
f 28/28/21 29/29/22 23/23/18
f 29/29/22 30/30/23 23/23/18
f 30/30/23 31/31/24 23/23/18
f 31/31/24 32/32/25 23/23/18
f 32/32/25 33/33/26 23/23/18
f 33/33/26 34/34/27 23/23/18
f 34/34/27 35/35/28 23/23/18
f 23/23/18 35/35/28 22/22/29
f 52/52/30 53/53/31 51/51/32
f 53/53/31 54/54/33 51/51/32
f 54/54/33 55/55/34 51/51/32
f 55/55/34 56/56/35 51/51/32
f 56/56/35 57/57/36 51/51/32
f 57/57/36 58/58/37 51/51/32
f 58/58/37 59/59/38 51/51/32
f 59/59/38 60/60/39 51/51/32
f 60/60/39 61/61/40 51/51/32
f 61/61/40 62/62/41 51/51/32
f 62/62/41 63/63/42 51/51/32
f 51/51/32 63/63/42 50/50/43
f 35/35/28 36/36/44 22/22/29
f 36/36/44 37/37/45 22/22/29
f 37/37/45 38/38/46 22/22/29
f 38/38/46 39/39/47 22/22/29
f 39/39/47 40/40/48 22/22/29
f 40/40/48 41/41/49 22/22/29
f 41/41/49 42/42/50 22/22/29
f 42/42/50 43/43/51 22/22/29
f 43/43/51 44/44/52 22/22/29
f 22/22/29 44/44/52 21/21/53
f 44/44/52 45/45/54 21/21/53
f 45/45/54 46/46/55 21/21/53
f 46/46/55 47/47/56 21/21/53
f 47/47/56 48/48/57 21/21/53
f 21/21/53 48/48/57 20/20/58
f 48/48/57 49/49/59 20/20/58
f 20/20/58 49/49/59 19/19/60
f 19/19/60 49/49/59 18/18/61
f 18/18/61 49/49/59 17/17/62
f 17/17/62 49/49/59 16/16/63
f 49/49/59 50/50/43 16/16/63
f 16/16/63 50/50/43 71/71/64
f 50/50/43 63/63/42 71/71/64
f 63/63/42 64/64/65 71/71/64
f 71/71/64 64/64/65 70/70/66
f 64/64/65 65/65/67 70/70/66
f 65/65/67 66/66/68 70/70/66
f 66/66/68 67/67/69 70/70/66
f 67/67/69 68/68/70 70/70/66
f 68/68/70 69/69/71 70/70/66
f 80/80/72 72/72/73 79/79/74
f 79/79/74 72/72/73 78/78/75
f 78/78/75 72/72/73 83/83/76
f 83/83/76 72/72/73 82/82/77
f 72/72/73 73/73/78 82/82/77
f 73/73/78 74/74/79 82/82/77
f 82/82/77 74/74/79 81/81/80
f 78/78/75 83/83/76 77/77/81
f 83/83/76 81/81/80 77/77/81
f 81/81/80 74/74/79 77/77/81
f 75/75/82 76/76/83 74/74/79
f 74/74/79 76/76/83 77/77/81
f 84/84/84 85/85/85 87/87/86
f 87/87/86 85/85/85 86/86/87
